HIERARCHY
ROOT Hips
{
	OFFSET 0.000000 0.000000 0.000000 
	CHANNELS 6 Xposition Yposition Zposition Yrotation Zrotation Xrotation 
	JOINT Lumbar
	{
		OFFSET 0.000000 0.000000 0.000000 
		CHANNELS 3 Zrotation Xrotation Yrotation
		JOINT Neck
		{
			OFFSET 0.000000 0.445665 0.000000 
			CHANNELS 3 Zrotation Xrotation Yrotation
			End Site
			{
				OFFSET 0.000000 0.227535 0.000000 
			}
		}
		JOINT RightShoulder
		{
			OFFSET 0.019635 0.377685 0.194865 
			CHANNELS 3 Zrotation Xrotation Yrotation
			JOINT RightElbow
			{
				OFFSET 0.000000 -0.243375 0.000000 
				CHANNELS 2 Zrotation Yrotation
				JOINT RightWrist
				{
					OFFSET 0.000000 -0.264825 0.000000 
					CHANNELS 2 Zrotation Xrotation
					End Site
					{
						OFFSET 0.006600 -0.176220 0.000990 
					}
				}
			}
		}
		JOINT LeftShoulder
		{
			OFFSET 0.019635 0.377685 -0.194865 
			CHANNELS 3 Zrotation Xrotation Yrotation
			JOINT LeftElbow
			{
				OFFSET 0.000000 -0.243375 0.000000 
				CHANNELS 2 Zrotation Yrotation
				JOINT LeftWrist
				{
					OFFSET 0.000000 -0.264825 0.000000 
					CHANNELS 2 Zrotation Xrotation
					End Site
					{
						OFFSET 0.006600 -0.176220 -0.000990 
					}
				}
			}
		}
	}
	JOINT RightHip
	{
		OFFSET 0.052140 -0.069960 0.075570 
		CHANNELS 3 Zrotation Xrotation Yrotation
		JOINT RightKnee
		{
			OFFSET 0.000000 -0.402270 0.000000 
			CHANNELS 1 Zrotation
			JOINT RightAnkle
			{
				OFFSET 0.000000 -0.404085 0.000000 
				CHANNELS 3 Zrotation Xrotation Yrotation
				End Site
				{
					OFFSET 0.204105 -0.089430 0.008415 
				}
			}
		}
	}
	JOINT LeftHip
	{
		OFFSET 0.052140 -0.069960 -0.075570 
		CHANNELS 3 Zrotation Xrotation Yrotation
		JOINT LeftKnee
		{
			OFFSET 0.000000 -0.402270 0.000000 
			CHANNELS 1 Zrotation
			JOINT LeftAnkle
			{
				OFFSET 0.000000 -0.404085 0.000000 
				CHANNELS 3 Zrotation Xrotation Yrotation
				End Site
				{
					OFFSET 0.204105 -0.089430 -0.008415 
				}
			}
		}
	}
}
MOTION
Frames: 30
Frame Time: 0.02
-0.3032 -0.94526 0.18774 26.17957 41.43522 -5.38231 -9.34544 1.4039 -12.65683 -44.80579 -11.94604 -0.83079 -51.92288 -29.63017 -3.75765 75.70243 93.35087 15.33059 -1.19773 24.27006 56.12129 -28.97345 49.67217 -101.61855 6.2976 -3.72642 108.18821 -11.58057 -11.03278 -83.05979 -14.36691 -3.86043 -3.04503 128.57329 -0.93756 -7.39912 -122.36573 -20.10106 0.24681 1.13637
-0.3031 -0.94519 0.18751 26.20359 41.48151 -5.60965 -9.09678 1.61055 -12.55306 -44.83514 -11.80975 -0.83079 -51.54943 -29.33396 -4.21579 76.15212 94.86821 13.75185 -0.42494 21.18497 56.24253 -26.03707 49.37198 -100.1586 5.69067 -3.75307 108.04725 -11.41379 -10.34398 -82.90844 -14.41409 -3.74164 -2.9793 128.33371 0.83191 -6.01866 -121.48635 -21.09855 0.13062 0.98972
-0.303 -0.94505 0.18721 26.22539 41.41533 -5.86044 -8.75196 1.87456 -12.43614 -44.85359 -11.69684 -0.83079 -50.97295 -29.01231 -4.76092 76.48128 96.88356 12.08566 0.61984 17.94348 56.22081 -23.03552 48.97615 -98.36978 5.02643 -3.7577 107.99276 -11.23827 -9.58308 -82.78839 -14.46728 -3.62008 -2.91346 128.08353 2.53675 -4.57042 -120.41341 -22.64165 -0.35046 0.59522
-0.30289 -0.94494 0.18695 26.2423 41.39569 -6.09594 -8.44984 2.10931 -12.31451 -44.87795 -11.56061 -0.83079 -50.47702 -28.7154 -5.2347 76.83674 98.49037 10.44982 1.48463 14.78663 56.25152 -20.0844 48.62231 -96.75535 4.3971 -3.77821 107.89851 -11.07262 -8.8718 -82.65671 -14.51629 -3.50309 -2.84938 127.83487 4.22531 -3.174 -119.41808 -23.87557 -0.6442 0.33257
-0.30283 -0.94484 0.18666 26.28408 41.39683 -6.35126 -8.15392 2.35817 -12.23673 -44.90043 -11.47529 -0.83079 -50.0278 -28.36163 -5.83914 77.31401 100.84163 8.83279 2.57812 11.56353 56.33397 -17.03721 48.27227 -95.02249 3.72383 -3.7778 107.80405 -10.88216 -8.087 -82.51712 -14.57163 -3.37211 -2.77804 127.60118 6.12065 -1.67992 -118.46533 -25.35198 -1.0116 0.00017
-0.30267 -0.94472 0.18641 26.27426 41.32855 -6.57117 -7.82323 2.59114 -12.06526 -44.92267 -11.29084 -0.83079 -49.43374 -28.12062 -6.19416 77.50705 101.78761 7.17031 3.2676 8.44689 56.27418 -14.18063 47.8923 -93.46446 3.13181 -3.8144 107.73076 -10.74098 -7.43955 -82.39969 -14.61585 -3.26976 -2.72198 127.33093 7.56599 -0.37584 -117.37731 -26.45712 -1.31741 -0.24983
-0.30226 -0.94457 0.18626 26.11314 41.08163 -6.68246 -7.39803 2.76473 -11.63468 -44.95614 -10.82318 -0.83079 -48.49454 -28.19869 -5.83073 76.96045 98.50965 5.32229 2.72504 5.63673 55.86835 -11.83237 47.45596 -92.4551 2.76725 -3.95608 107.70374 -10.74159 -7.18383 -82.34359 -14.61865 -3.24534 -2.70605 126.99329 7.76559 0.37644 -115.97586 -26.42839 -1.38202 -0.21635
-0.30176 -0.9444 0.18615 25.90159 40.77069 -6.75799 -6.94444 2.92044 -11.11109 -44.98791 -10.25616 -0.83079 -47.41633 -28.39111 -5.21522 76.12927 93.83911 3.44772 1.77777 2.94544 55.32235 -9.68583 46.99257 -91.63751 2.48889 -4.13528 107.69443 -10.79137 -7.0701 -82.30737 -14.6113 -3.2501 -2.70581 126.61418 7.51547 0.935 -114.44295 -26.00628 -1.37187 -0.09246
-0.3013 -0.94426 0.18602 25.71939 40.49859 -6.85336 -6.51806 3.08527 -10.63257 -45.01411 -9.73722 -0.83079 -46.39853 -28.53027 -4.7211 75.41773 89.95618 1.64178 1.04746 0.2168 54.83323 -7.46913 46.54019 -90.74327 2.17946 -4.29884 107.67077 -10.81648 -6.89497 -82.25602 -14.61489 -3.24276 -2.69986 126.23343 7.48189 1.58871 -112.96216 -25.74909 -1.386 -0.00819
-0.30084 -0.94407 0.18589 25.51076 40.18291 -6.93515 -6.02905 3.24822 -10.14165 -45.06642 -9.206 -0.83079 -45.38421 -28.6736 -4.20129 74.74184 85.45036 -0.40245 0.18168 -2.59024 54.3682 -5.15674 46.0902 -89.7927 1.83521 -4.45727 107.67411 -10.85149 -6.70391 -82.22966 -14.59329 -3.23067 -2.68822 125.93684 7.39653 2.21798 -111.50661 -25.56435 -1.45121 0.06263
-0.30037 -0.94396 0.18578 25.34424 39.94244 -7.03553 -5.66364 3.40973 -9.65474 -45.0645 -8.67735 -0.83079 -44.33361 -28.83618 -3.67379 73.92702 81.88833 -1.96028 -0.49479 -5.20064 53.82119 -3.09558 45.6296 -89.00973 1.58283 -4.63367 107.62754 -10.87715 -6.58092 -82.15792 -14.62004 -3.2351 -2.69178 125.45767 7.31109 2.84744 -109.96998 -25.13422 -1.39039 0.18464
-0.29988 -0.94406 0.18573 25.31497 39.94138 -7.20348 -5.65894 3.57426 -9.2013 -44.9095 -8.17239 -0.83079 -43.20617 -29.02036 -3.18809 72.7866 81.41683 -2.12508 -0.61212 -7.32104 53.08611 -1.65313 45.15094 -88.64141 1.57991 -4.86664 107.41072 -10.86986 -6.60971 -81.93529 -14.79659 -3.28098 -2.73681 124.46406 7.35141 3.55644 -108.24193 -24.0689 -0.97448 0.43957
-0.29938 -0.94422 0.1857 25.32835 40.01586 -7.38991 -5.77795 3.73712 -8.75542 -44.70076 -7.67466 -0.83079 -42.04986 -29.2207 -2.70266 71.51868 81.91729 -1.80652 -0.51705 -9.24175 52.27347 -0.46197 44.66216 -88.43702 1.66358 -5.11347 107.14775 -10.85081 -6.7028 -81.66992 -15.01959 -3.34202 -2.79605 123.29222 7.40452 4.26607 -106.43841 -22.77728 -0.43714 0.74164
-0.29888 -0.94434 0.18566 25.31638 40.04566 -7.56281 -5.83239 3.89882 -8.30619 -44.51912 -7.17873 -0.83079 -40.915 -29.41618 -2.21577 70.31766 81.87171 -1.73797 -0.47644 -11.2382 51.49432 0.82739 44.17544 -88.16012 1.69692 -5.34345 106.92411 -10.83369 -6.76768 -81.43763 -15.21214 -3.39409 -2.84653 122.21517 7.44152 4.95427 -104.66942 -21.62226 0.0296 1.01427
-0.2984 -0.94452 0.18563 25.32728 40.11648 -7.75598 -5.92026 4.06829 -7.85266 -44.32603 -6.65838 -0.83079 -39.74068 -29.60541 -1.72577 69.06989 82.20433 -1.54465 -0.61742 -13.29659 50.71714 2.17846 43.69839 -87.88148 1.7798 -5.61929 106.62427 -10.83178 -6.83293 -81.14876 -15.44352 -3.45564 -2.90703 121.0776 7.50607 5.72495 -102.89205 -20.31256 0.56325 1.32344
-0.29787 -0.9446 0.18559 25.30203 40.12113 -7.912 -5.96924 4.22108 -7.41198 -44.14418 -6.19128 -0.83079 -38.64264 -29.80966 -1.24559 67.89158 82.01565 -1.49314 -0.33698 -15.17681 49.91984 3.34251 43.19923 -87.64273 1.77865 -5.80241 106.47115 -10.7959 -6.91116 -80.96691 -15.60549 -3.50104 -2.95013 120.02538 7.52237 6.32661 -101.11931 -19.27481 0.98614 1.56692
-0.29721 -0.9444 0.1855 25.16061 39.92074 -7.95886 -5.87251 4.33108 -6.99789 -44.0051 -5.87561 -0.83079 -37.7709 -30.05382 -0.79347 66.9498 80.00406 -1.97612 1.16511 -16.6408 49.08237 4.06337 42.64141 -87.47568 1.52665 -5.7254 106.74141 -10.65886 -7.00619 -81.0945 -15.56188 -3.49461 -2.93885 119.24409 7.40241 6.46073 -99.35087 -19.05835 1.06762 1.61424
-0.2965 -0.94412 0.18541 24.98264 39.65215 -7.9682 -5.73407 4.42391 -6.59837 -43.87936 -5.61289 -0.83079 -36.97593 -30.3114 -0.35217 66.08145 77.46757 -2.61363 3.06613 -17.92734 48.22889 4.60286 42.06213 -87.34201 1.18645 -5.55432 107.15965 -10.48954 -7.11199 -81.33053 -15.44734 -3.47181 -2.90995 118.55706 7.23572 6.42559 -97.59608 -19.1228 1.03417 1.594
-0.2958 -0.94387 0.18531 24.82562 39.41768 -7.99628 -5.62014 4.52277 -6.19712 -43.74858 -5.32204 -0.83079 -36.14107 -30.56085 0.09331 65.17184 75.27499 -3.16428 4.71356 -19.27885 47.38563 5.21952 41.49255 -87.19086 0.88432 -5.42687 107.50538 -10.34162 -7.2143 -81.51454 -15.36699 -3.45886 -2.891 117.83205 7.09257 6.46966 -95.85252 -19.05041 1.05684 1.60642
-0.29514 -0.94363 0.18524 24.65197 39.1728 -8.01798 -5.48695 4.629 -5.77498 -43.612 -5.04746 -0.83079 -35.32675 -30.82 0.54155 64.29014 72.67423 -3.76888 6.67061 -20.69195 46.52649 5.85212 40.92172 -87.05475 0.59278 -5.29715 107.87128 -10.16552 -7.31296 -81.70862 -15.27996 -3.43681 -2.86468 117.07851 6.93968 6.50492 -94.02983 -19.00746 1.06745 1.6123
-0.2944 -0.94336 0.18511 24.50345 38.93216 -8.04363 -5.38249 4.71588 -5.40027 -43.4909 -4.75287 -0.83079 -34.48761 -31.06129 0.98209 63.37039 70.78194 -4.3034 8.07824 -21.93413 45.69846 6.40845 40.3499 -86.89381 0.25831 -5.14844 108.23147 -10.03983 -7.42098 -81.90804 -15.18941 -3.42897 -2.84893 116.41134 6.79606 6.51715 -92.37969 -18.97438 1.07417 1.6151
-0.29348 -0.94303 0.18486 24.43555 38.72215 -8.09107 -5.36598 4.75306 -5.14846 -43.41349 -4.37821 -0.83079 -33.56689 -31.25492 1.39821 62.32101 71.01214 -4.61379 7.84118 -22.77387 44.95433 6.82754 39.77001 -86.64874 -0.18339 -4.98074 108.53485 -10.06812 -7.55081 -82.09559 -15.10646 -3.46977 -2.87029 115.94167 6.68848 6.5179 -91.17387 -18.88893 1.09852 1.62585
-0.29249 -0.94268 0.18457 24.39365 38.51805 -8.14339 -5.37964 4.77144 -4.94466 -43.35069 -3.98368 -0.83079 -32.61736 -31.42904 1.80824 61.23307 71.96195 -4.84878 7.04227 -23.44289 44.24383 7.17169 39.19258 -86.37802 -0.66328 -4.7954 108.82832 -10.14711 -7.68941 -82.28484 -15.02232 -3.5244 -2.90223 115.56 6.59197 6.49948 -90.14725 -18.8069 1.12222 1.63559
-0.29155 -0.94234 0.18429 24.33804 38.30929 -8.19221 -5.37969 4.79874 -4.72179 -43.27868 -3.60616 -0.83079 -31.6778 -31.60884 2.2245 60.16736 72.55241 -5.11675 6.51889 -24.1752 43.52193 7.53277 38.62014 -86.12307 -1.12008 -4.61094 109.12997 -10.19831 -7.82478 -82.47375 -14.93835 -3.56899 -2.92686 115.15058 6.49104 6.4826 -89.05752 -18.73172 1.14544 1.64561
-0.29056 -0.94198 0.18401 24.28882 38.1062 -8.24499 -5.37728 4.82392 -4.48787 -43.21792 -3.19724 -0.83079 -30.75528 -31.80282 2.62474 59.08284 73.2604 -5.39771 5.9232 -24.96555 42.78201 7.96088 38.0183 -85.85216 -1.6062 -4.45233 109.42202 -10.26806 -7.9581 -82.6652 -14.85297 -3.62861 -2.96124 114.69225 6.38605 6.48943 -87.88973 -18.63091 1.16807 1.65411
-0.28964 -0.94167 0.18372 24.23337 37.89403 -8.29135 -5.3885 4.84921 -4.28815 -43.13708 -2.84773 -0.83079 -29.78793 -31.96217 3.05831 58.0292 73.9027 -5.62866 5.34086 -25.59177 42.08909 8.23248 37.48215 -85.60778 -2.03655 -4.23815 109.72881 -10.31211 -8.09673 -82.84958 -14.77181 -3.66077 -2.97828 114.35599 6.2926 6.44537 -86.92828 -18.58039 1.19315 1.66634
-0.28894 -0.94146 0.18344 24.15096 37.65169 -8.31756 -5.42335 4.88017 -4.17134 -42.99659 -2.67218 -0.83079 -28.71526 -32.03283 3.57507 57.05452 74.1767 -5.76626 4.91782 -25.84854 41.50736 8.10299 37.09614 -85.44418 -2.32566 -3.86427 110.08628 -10.26862 -8.25532 -83.02013 -14.69766 -3.61087 -2.94301 114.33073 6.23012 6.2596 -86.4814 -18.66946 1.22635 1.68989
-0.28831 -0.94129 0.18315 24.06225 37.40106 -8.33761 -5.47243 4.9119 -4.08718 -42.83526 -2.55601 -0.83079 -27.59514 -32.06881 4.12783 56.11479 74.36464 -5.85043 4.5279 -25.93782 40.9739 7.81652 36.78193 -85.30777 -2.55273 -3.43719 110.45674 -10.19835 -8.41744 -83.18181 -14.62919 -3.53348 -2.89037 114.42552 6.17895 6.02558 -86.23798 -18.80743 1.26229 1.71737
-0.28766 -0.94111 0.18286 23.97877 37.1569 -8.36142 -5.51937 4.94283 -3.9878 -42.68409 -2.40892 -0.83079 -26.48996 -32.1192 4.67061 55.16903 74.60128 -5.94115 4.13123 -26.07881 40.42508 7.59528 36.45516 -85.15787 -2.79329 -3.04228 110.81556 -10.1434 -8.5731 -83.34303 -14.5616 -3.47064 -2.84697 114.46804 6.12146 5.81793 -85.90888 -18.92047 1.29682 1.74292
-0.28699 -0.94091 0.18258 23.88596 36.90133 -8.38116 -5.54858 4.97478 -3.89166 -42.53137 -2.27727 -0.83079 -25.41523 -32.1747 5.18517 54.18046 74.82096 -6.10441 3.6821 -26.32203 39.84921 7.39964 36.04397 -85.01177 -3.09743 -2.6143 111.19839 -10.07738 -8.74985 -83.5234 -14.47891 -3.39961 -2.79822 114.50465 6.06867 5.58935 -85.55766 -19.04487 1.33223 1.76916
